<svg width="512" height="512" viewBox="0 0 512 512" fill="none" xmlns="http://www.w3.org/2000/svg" role="img" aria-labelledby="title desc">
  <title id="title">ElectroHub logo</title>
  <desc id="desc">A modern electrical mark with a lightning bolt inside a rounded square.</desc>
  <defs>
    <linearGradient id="bg" x1="64" y1="48" x2="448" y2="464" gradientUnits="userSpaceOnUse">
      <stop stop-color="#10213D"/>
      <stop offset="0.55" stop-color="#27406B"/>
      <stop offset="1" stop-color="#667EEA"/>
    </linearGradient>
    <linearGradient id="bolt" x1="184" y1="136" x2="328" y2="376" gradientUnits="userSpaceOnUse">
      <stop stop-color="#FFF4D6"/>
      <stop offset="1" stop-color="#F9B233"/>
    </linearGradient>
    <filter id="shadow" x="40" y="40" width="432" height="432" filterUnits="userSpaceOnUse">
      <feDropShadow dx="0" dy="18" stdDeviation="18" flood-color="#10213D" flood-opacity="0.22"/>
    </filter>
  </defs>

  <rect x="56" y="56" width="400" height="400" rx="104" fill="url(#bg)" filter="url(#shadow)"/>
  <circle cx="160" cy="162" r="14" fill="#FFD77B" opacity="0.9"/>
  <circle cx="350" cy="166" r="10" fill="#A9C4FF" opacity="0.8"/>
  <circle cx="350" cy="350" r="12" fill="#FFD77B" opacity="0.65"/>

  <path
    d="M268 120L170 282H238L214 392L346 224H278L300 120H268Z"
    fill="url(#bolt)"
    stroke="#FFF7E0"
    stroke-width="8"
    stroke-linejoin="round"
  />

  <path
    d="M148 358C169 388 204 408 244 408H268"
    stroke="#A9C4FF"
    stroke-width="16"
    stroke-linecap="round"
    opacity="0.65"
  />
  <path
    d="M364 166C352 150 336 138 318 132"
    stroke="#FFD77B"
    stroke-width="14"
    stroke-linecap="round"
    opacity="0.7"
  />
  <path
    d="M372 302C360 324 342 340 320 352"
    stroke="#A9C4FF"
    stroke-width="14"
    stroke-linecap="round"
    opacity="0.7"
  />
</svg>
